<svg width="14" height="14" viewBox="0 0 14 14" fill="none" xmlns="http://www.w3.org/2000/svg">
<path fill-rule="evenodd" clip-rule="evenodd" d="M5.70354 12.25H8.29612C10.1168 12.25 11.0271 12.25 11.681 11.821C11.964 11.6353 12.2071 11.3966 12.3963 11.1187C12.8332 10.4767 12.8332 9.58294 12.8332 7.79543C12.8332 6.00798 12.8332 5.11421 12.3963 4.47218C12.2071 4.19425 11.964 3.95561 11.681 3.7699C11.2607 3.49424 10.7347 3.39572 9.92934 3.3605C9.54498 3.3605 9.21411 3.07456 9.13875 2.70454C9.02564 2.14952 8.52928 1.75 7.95283 1.75H6.04685C5.47037 1.75 4.97401 2.14952 4.86095 2.70454C4.78557 3.07456 4.45467 3.3605 4.07034 3.3605C3.26495 3.39572 2.73891 3.49424 2.31873 3.7699C2.03564 3.95561 1.79258 4.19425 1.60343 4.47218C1.1665 5.11421 1.1665 6.00798 1.1665 7.79543C1.1665 9.58294 1.1665 10.4767 1.60343 11.1187C1.79258 11.3966 2.03564 11.6353 2.31873 11.821C2.97264 12.25 3.88294 12.25 5.70354 12.25ZM6.99984 5.40909C5.65748 5.40909 4.56928 6.47751 4.56928 7.79543C4.56928 9.11342 5.65748 10.1818 6.99984 10.1818C8.3422 10.1818 9.43041 9.11342 9.43041 7.79543C9.43041 6.47751 8.3422 5.40909 6.99984 5.40909ZM6.99984 6.36364C6.19443 6.36364 5.5415 7.00467 5.5415 7.79543C5.5415 8.5862 6.19443 9.22728 6.99984 9.22728C7.80525 9.22728 8.45817 8.5862 8.45817 7.79543C8.45817 7.00467 7.80525 6.36364 6.99984 6.36364ZM9.75445 5.88636C9.75445 5.62277 9.9721 5.40909 10.2406 5.40909H10.8887C11.1572 5.40909 11.3748 5.62277 11.3748 5.88636C11.3748 6.14997 11.1572 6.36364 10.8887 6.36364H10.2406C9.9721 6.36364 9.75445 6.14997 9.75445 5.88636Z" fill="white"/>
</svg>
