<svg width="30" height="30" viewBox="0 0 30 30" fill="none" xmlns="http://www.w3.org/2000/svg">
<path d="M18.6589 3.29999C18.6589 3.29999 17.3736 3.74999 15.3548 3.74999C13.3361 3.74999 12.0508 3.29999 12.0508 3.29999C11.8477 3.29999 11.646 3.33423 11.4544 3.40124L2.71631 6.44999L3.65461 11.4L6.41252 11.7105C6.75026 11.7486 7.06127 11.9119 7.2838 12.1681C7.50634 12.4242 7.62411 12.7544 7.61374 13.0931L7.23007 26.7H23.4796L23.0959 13.0931C23.0856 12.7544 23.2033 12.4242 23.4259 12.1681C23.6484 11.9119 23.9594 11.7486 24.2972 11.7105L27.0551 11.4L27.9934 6.44999L19.2553 3.40124C19.0636 3.33423 18.862 3.29999 18.6589 3.29999Z" stroke="white" stroke-width="1.5" stroke-linecap="round" stroke-linejoin="round"/>
<path d="M19.7169 3.56207C19.461 4.52066 18.8947 5.36812 18.1058 5.97266C17.317 6.5772 16.3499 6.90496 15.3549 6.90496C14.3599 6.90496 13.3928 6.5772 12.604 5.97266C11.8151 5.36812 11.2488 4.52066 10.9929 3.56207" stroke="white" stroke-width="1.5" stroke-linecap="round" stroke-linejoin="round"/>
</svg>
